# xmcd
#
# Track frame offsets: 
#        150
#        6588
#        20400
#        39902
#        54199
#        58836
#        76080
#        92889
#        109094
#        113221
#        133653
#        151812
#        169707
#        174663
#        183150
#        196038
#        200433
#        217937
#        222941
#        237068
#        264302
#
# Disc length: 3714 seconds
#
# Revision: 2
# Processed by: cddbd v1.5.2PL0 Copyright (c) Steve Scherf et al.
# Submitted via: ExactAudioCopyFreeDBPlugin 1.0
#
DISCID=100e8015
DTITLE=Prinz Porno - Radiumreaktion
DYEAR=2002
DGENRE=Rap
TTITLE0=Erstes Element
TTITLE1=Picknick im Park (Rap ist Pt. 1)
TTITLE2=Herren der Welt
TTITLE3=23 (Rap ist Pt. 2) feat. Joker, Kobra, SMX and Asek
TTITLE4=Wake Up
TTITLE5=Morgens
TTITLE6=Nachtaktion feat. Kobra, SMX and B-A-Di
TTITLE7=H Eiskalt
TTITLE8=Skitt
TTITLE9=Hightech Rapclik
TTITLE10=20.000 Meilen Untergrund
TTITLE11=Einefam (Rap ist Pt. 3) feat. Kobra and SMX
TTITLE12=Redoxreaktion
TTITLE13=4er Raps feat. Kobra, SMX and Ro
TTITLE14=Wir kommen wieder feat. Kobra and SMX
TTITLE15=Bondbeat
TTITLE16=Blind feat. Kobra and SMX
TTITLE17=Mooglove
TTITLE18=Picknick RMX
TTITLE19=In deiner Nähe feat. Kid Kobra and SMX
TTITLE20=Es reicht feat. SMX, Kid Kobra and Savas
EXTD=
EXTT0=
EXTT1=
EXTT2=
EXTT3=
EXTT4=
EXTT5=
EXTT6=
EXTT7=
EXTT8=
EXTT9=
EXTT10=
EXTT11=
EXTT12=
EXTT13=
EXTT14=
EXTT15=
EXTT16=
EXTT17=
EXTT18=
EXTT19=
EXTT20=
PLAYORDER=
